<?xml version="1.0" standalone="no"?>
<!DOCTYPE svg PUBLIC "-//W3C//DTD SVG 20010904//EN"
 "http://www.w3.org/TR/2001/REC-SVG-20010904/DTD/svg10.dtd">
<svg version="1.0" xmlns="http://www.w3.org/2000/svg"
 width="700.000000pt" height="700.000000pt" viewBox="0 0 700.000000 700.000000"
 preserveAspectRatio="xMidYMid meet">
<metadata>
Created by potrace 1.14, written by Peter Selinger 2001-2017
</metadata>
<g transform="translate(0.000000,700.000000) scale(0.100000,-0.100000)"
fill="#000000" stroke="none">
<path d="M5655 6428 c-23 -11 -177 -156 -356 -335 l-317 -315 -94 56 c-572
341 -1289 265 -1738 -184 -87 -87 -142 -160 -231 -309 -89 -150 -189 -260
-304 -336 -104 -70 -111 -73 -627 -270 -238 -91 -487 -193 -553 -225 -498
-248 -831 -735 -894 -1312 -50 -450 81 -908 368 -1288 73 -97 869 -902 1004
-1016 454 -383 1025 -531 1577 -408 485 108 889 423 1110 864 26 52 129 309
230 570 100 261 191 493 203 515 64 127 192 267 316 345 221 140 286 186 361
257 275 258 422 608 421 1002 0 285 -68 524 -218 775 l-36 58 326 327 c219
219 331 338 342 363 32 79 10 182 -51 240 -60 56 -156 74 -232 43 -25 -11
-140 -119 -350 -328 l-312 -312 -142 143 -143 142 312 312 c209 210 317 325
328 350 32 79 10 182 -51 240 -64 60 -173 76 -249 36z m-1359 -833 c166 -29
320 -96 454 -195 99 -74 718 -702 769 -780 188 -291 229 -634 112 -936 -77
-197 -212 -351 -416 -471 -201 -119 -340 -238 -454 -390 -94 -126 -135 -215
-327 -712 -105 -273 -209 -532 -232 -576 -195 -385 -578 -628 -1027 -652 -314
-17 -631 83 -905 284 -43 32 -274 255 -536 517 -402 402 -469 474 -527 562
-107 162 -172 317 -213 505 -23 106 -26 398 -5 504 62 315 235 591 478 765
129 91 182 115 693 312 255 98 504 199 553 224 242 122 425 296 572 546 108
183 191 275 327 361 195 125 445 173 684 132z"/>
<path d="M3778 4700 c-330 -83 -585 -359 -638 -693 -16 -94 -8 -267 15 -352
45 -166 164 -346 296 -449 85 -67 224 -136 324 -162 106 -28 324 -26 428 4
312 89 546 338 613 652 21 98 18 269 -6 368 -61 253 -234 465 -473 577 -115
54 -176 67 -337 71 -119 3 -159 0 -222 -16z m284 -421 c168 -36 297 -170 329
-343 35 -192 -88 -392 -280 -457 -93 -31 -212 -24 -301 18 -95 44 -153 100
-197 191 -37 74 -38 79 -38 187 0 99 3 116 27 168 37 78 117 160 192 197 95
47 175 58 268 39z"/>
<path d="M2040 3024 c-116 -50 -168 -188 -113 -299 22 -45 860 -882 908 -907
54 -28 136 -28 191 0 111 57 153 177 100 287 -34 70 -849 884 -916 914 -53 24
-121 26 -170 5z"/>
</g>
</svg>
